<mxfile host="Electron" modified="2023-07-24T21:37:13.414Z" agent="Mozilla/5.0 (Macintosh; Intel Mac OS X 10_15_7) AppleWebKit/537.36 (KHTML, like Gecko) draw.io/21.6.1 Chrome/112.0.5615.204 Electron/24.6.1 Safari/537.36" etag="e1U1wWlKQXXckYp0fJNa" version="21.6.1" type="device">
  <diagram name="Page-1" id="73lPq-DKPrrdzMy-Wt2I">
    <mxGraphModel dx="907" dy="674" grid="1" gridSize="10" guides="1" tooltips="1" connect="1" arrows="1" fold="1" page="1" pageScale="1" pageWidth="827" pageHeight="1169" math="0" shadow="0">
      <root>
        <mxCell id="0" />
        <mxCell id="1" parent="0" />
        <mxCell id="5NILO1VMau-hQC1xxTVp-1" value="&lt;font style=&quot;font-size: 16px;&quot;&gt;Oracle/User&lt;/font&gt;" style="sketch=0;outlineConnect=0;fontColor=#232F3E;gradientColor=none;fillColor=#232F3D;strokeColor=none;dashed=0;verticalLabelPosition=bottom;verticalAlign=top;align=center;html=1;fontSize=12;fontStyle=0;aspect=fixed;pointerEvents=1;shape=mxgraph.aws4.user;" parent="1" vertex="1">
          <mxGeometry x="390" y="140" width="80" height="80" as="geometry" />
        </mxCell>
        <mxCell id="5NILO1VMau-hQC1xxTVp-6" style="edgeStyle=orthogonalEdgeStyle;rounded=0;orthogonalLoop=1;jettySize=auto;html=1;entryX=0;entryY=0.5;entryDx=0;entryDy=0;" parent="1" source="5NILO1VMau-hQC1xxTVp-2" target="5NILO1VMau-hQC1xxTVp-5" edge="1">
          <mxGeometry relative="1" as="geometry" />
        </mxCell>
        <mxCell id="5NILO1VMau-hQC1xxTVp-2" value="&lt;font style=&quot;font-size: 16px;&quot;&gt;Unlabelled summaries&lt;/font&gt;" style="shape=cylinder3;whiteSpace=wrap;html=1;boundedLbl=1;backgroundOutline=1;size=15;" parent="1" vertex="1">
          <mxGeometry x="100" y="260" width="119" height="80" as="geometry" />
        </mxCell>
        <mxCell id="5NILO1VMau-hQC1xxTVp-4" style="edgeStyle=orthogonalEdgeStyle;rounded=0;orthogonalLoop=1;jettySize=auto;html=1;entryX=0.5;entryY=0;entryDx=0;entryDy=0;entryPerimeter=0;" parent="1" source="5NILO1VMau-hQC1xxTVp-3" target="5NILO1VMau-hQC1xxTVp-2" edge="1">
          <mxGeometry relative="1" as="geometry" />
        </mxCell>
        <mxCell id="5NILO1VMau-hQC1xxTVp-3" value="&lt;font style=&quot;font-size: 16px;&quot;&gt;Extractive Summariser Model&lt;/font&gt;" style="rounded=1;whiteSpace=wrap;html=1;dashed=1;" parent="1" vertex="1">
          <mxGeometry x="100" y="150" width="120" height="60" as="geometry" />
        </mxCell>
        <mxCell id="5NILO1VMau-hQC1xxTVp-9" style="edgeStyle=orthogonalEdgeStyle;rounded=0;orthogonalLoop=1;jettySize=auto;html=1;entryX=0;entryY=0.5;entryDx=0;entryDy=0;" parent="1" source="5NILO1VMau-hQC1xxTVp-5" target="5NILO1VMau-hQC1xxTVp-8" edge="1">
          <mxGeometry relative="1" as="geometry" />
        </mxCell>
        <mxCell id="5NILO1VMau-hQC1xxTVp-13" value="&lt;font style=&quot;font-size: 14px;&quot;&gt;EI&lt;br&gt;Sampling&lt;/font&gt;" style="edgeLabel;html=1;align=center;verticalAlign=middle;resizable=0;points=[];fontSize=12;" parent="5NILO1VMau-hQC1xxTVp-9" vertex="1" connectable="0">
          <mxGeometry relative="1" as="geometry">
            <mxPoint as="offset" />
          </mxGeometry>
        </mxCell>
        <mxCell id="5NILO1VMau-hQC1xxTVp-5" value="&lt;font style=&quot;font-size: 16px;&quot;&gt;BDL Ranking Model&lt;/font&gt;" style="rounded=1;whiteSpace=wrap;html=1;strokeColor=#ff0000;" parent="1" vertex="1">
          <mxGeometry x="260" y="270" width="120" height="60" as="geometry" />
        </mxCell>
        <mxCell id="5NILO1VMau-hQC1xxTVp-10" style="edgeStyle=orthogonalEdgeStyle;rounded=0;orthogonalLoop=1;jettySize=auto;html=1;exitX=0.5;exitY=0;exitDx=0;exitDy=0;" parent="1" source="5NILO1VMau-hQC1xxTVp-8" target="5NILO1VMau-hQC1xxTVp-1" edge="1">
          <mxGeometry relative="1" as="geometry">
            <mxPoint x="520" y="170" as="targetPoint" />
            <Array as="points">
              <mxPoint x="560" y="180" />
            </Array>
          </mxGeometry>
        </mxCell>
        <mxCell id="5NILO1VMau-hQC1xxTVp-12" value="&lt;font style=&quot;font-size: 16px;&quot;&gt;Candidate&lt;br&gt;Querying&lt;/font&gt;" style="edgeLabel;html=1;align=center;verticalAlign=middle;resizable=0;points=[];fontSize=12;" parent="5NILO1VMau-hQC1xxTVp-10" vertex="1" connectable="0">
          <mxGeometry relative="1" as="geometry">
            <mxPoint x="2" as="offset" />
          </mxGeometry>
        </mxCell>
        <mxCell id="5NILO1VMau-hQC1xxTVp-17" style="edgeStyle=orthogonalEdgeStyle;rounded=0;orthogonalLoop=1;jettySize=auto;html=1;entryX=0;entryY=0.5;entryDx=0;entryDy=0;entryPerimeter=0;" parent="1" source="5NILO1VMau-hQC1xxTVp-8" target="5NILO1VMau-hQC1xxTVp-16" edge="1">
          <mxGeometry relative="1" as="geometry">
            <mxPoint x="640" y="300" as="targetPoint" />
          </mxGeometry>
        </mxCell>
        <mxCell id="5NILO1VMau-hQC1xxTVp-8" value="&lt;font style=&quot;font-size: 16px;&quot;&gt;Pairwise Query Candidates&lt;/font&gt;" style="rounded=0;whiteSpace=wrap;html=1;" parent="1" vertex="1">
          <mxGeometry x="500" y="270" width="120" height="60" as="geometry" />
        </mxCell>
        <mxCell id="5NILO1VMau-hQC1xxTVp-18" style="edgeStyle=orthogonalEdgeStyle;rounded=0;orthogonalLoop=1;jettySize=auto;html=1;entryX=0.5;entryY=1;entryDx=0;entryDy=0;" parent="1" source="5NILO1VMau-hQC1xxTVp-30" target="5NILO1VMau-hQC1xxTVp-5" edge="1">
          <mxGeometry relative="1" as="geometry">
            <Array as="points" />
          </mxGeometry>
        </mxCell>
        <mxCell id="5NILO1VMau-hQC1xxTVp-19" value="&lt;font style=&quot;font-size: 15px;&quot;&gt;Model Retraining&lt;/font&gt;" style="edgeLabel;html=1;align=center;verticalAlign=middle;resizable=0;points=[];fontSize=12;" parent="5NILO1VMau-hQC1xxTVp-18" vertex="1" connectable="0">
          <mxGeometry x="0.0572" y="-1" relative="1" as="geometry">
            <mxPoint x="68" y="1" as="offset" />
          </mxGeometry>
        </mxCell>
        <mxCell id="5NILO1VMau-hQC1xxTVp-33" value="&lt;font style=&quot;font-size: 16px;&quot;&gt;No&lt;/font&gt;" style="edgeLabel;html=1;align=center;verticalAlign=middle;resizable=0;points=[];fontSize=12;" parent="5NILO1VMau-hQC1xxTVp-18" vertex="1" connectable="0">
          <mxGeometry x="-0.8581" y="1" relative="1" as="geometry">
            <mxPoint x="1" as="offset" />
          </mxGeometry>
        </mxCell>
        <mxCell id="5NILO1VMau-hQC1xxTVp-16" value="&lt;font style=&quot;font-size: 16px;&quot;&gt;Training Data&lt;/font&gt;" style="shape=cylinder3;whiteSpace=wrap;html=1;boundedLbl=1;backgroundOutline=1;size=15;" parent="1" vertex="1">
          <mxGeometry x="690" y="260" width="119" height="80" as="geometry" />
        </mxCell>
        <mxCell id="5NILO1VMau-hQC1xxTVp-24" value="" style="html=1;shadow=0;dashed=0;align=center;verticalAlign=middle;shape=mxgraph.arrows2.uTurnArrow;dy=3.5;arrowHead=21;dx2=25;fillColor=#dae8fc;strokeColor=#6c8ebf;opacity=40;" parent="1" vertex="1">
          <mxGeometry x="330" y="340" width="110" height="80" as="geometry" />
        </mxCell>
        <mxCell id="5NILO1VMau-hQC1xxTVp-31" value="" style="edgeStyle=orthogonalEdgeStyle;rounded=0;orthogonalLoop=1;jettySize=auto;html=1;entryX=0.5;entryY=0;entryDx=0;entryDy=0;" parent="1" source="5NILO1VMau-hQC1xxTVp-16" target="5NILO1VMau-hQC1xxTVp-30" edge="1">
          <mxGeometry relative="1" as="geometry">
            <mxPoint x="750" y="340" as="sourcePoint" />
            <mxPoint x="320" y="330" as="targetPoint" />
            <Array as="points">
              <mxPoint x="750" y="460" />
            </Array>
          </mxGeometry>
        </mxCell>
        <mxCell id="5NILO1VMau-hQC1xxTVp-37" value="" style="edgeStyle=orthogonalEdgeStyle;rounded=0;orthogonalLoop=1;jettySize=auto;html=1;" parent="1" source="5NILO1VMau-hQC1xxTVp-30" target="5NILO1VMau-hQC1xxTVp-36" edge="1">
          <mxGeometry relative="1" as="geometry" />
        </mxCell>
        <mxCell id="5NILO1VMau-hQC1xxTVp-38" value="&lt;font style=&quot;font-size: 16px;&quot;&gt;Yes&lt;/font&gt;" style="edgeLabel;html=1;align=center;verticalAlign=middle;resizable=0;points=[];" parent="5NILO1VMau-hQC1xxTVp-37" vertex="1" connectable="0">
          <mxGeometry x="-0.351" relative="1" as="geometry">
            <mxPoint y="6" as="offset" />
          </mxGeometry>
        </mxCell>
        <mxCell id="5NILO1VMau-hQC1xxTVp-30" value="&lt;font style=&quot;font-size: 16px;&quot;&gt;Maximum&lt;br&gt;iterations reached?&lt;/font&gt;" style="rhombus;whiteSpace=wrap;html=1;" parent="1" vertex="1">
          <mxGeometry x="654.5" y="380" width="190" height="100" as="geometry" />
        </mxCell>
        <mxCell id="5NILO1VMau-hQC1xxTVp-36" value="&lt;font style=&quot;font-size: 15px;&quot;&gt;Output Highest-Ranked Summary&lt;/font&gt;" style="shape=parallelogram;perimeter=parallelogramPerimeter;whiteSpace=wrap;html=1;fixedSize=1;" parent="1" vertex="1">
          <mxGeometry x="659.25" y="525" width="180.5" height="60" as="geometry" />
        </mxCell>
        <mxCell id="5NILO1VMau-hQC1xxTVp-39" value="" style="html=1;shadow=0;dashed=0;align=center;verticalAlign=middle;shape=mxgraph.arrows2.uTurnArrow;dy=3.5;arrowHead=21;dx2=25;fillColor=#dae8fc;strokeColor=#6c8ebf;opacity=40;rotation=-180;" parent="1" vertex="1">
          <mxGeometry x="580" y="340" width="110" height="80" as="geometry" />
        </mxCell>
      </root>
    </mxGraphModel>
  </diagram>
</mxfile>
